<svg width="100" height="100" viewBox="0 0 100 100" fill="none" xmlns="http://www.w3.org/2000/svg">
<path d="M58.3334 12.7999C62.4565 15.18 66.022 18.4156 68.7898 22.2891C71.5576 26.1626 73.4636 30.584 74.3795 35.2559C75.2954 39.9277 75.1999 44.7415 74.0995 49.3733C72.9991 54.0052 70.9193 58.3476 68.0001 62.1082L90.4459 84.5541C91.2049 85.3399 91.6249 86.3924 91.6154 87.4849C91.6059 88.5774 91.1677 89.6225 90.3951 90.395C89.6226 91.1675 88.5776 91.6057 87.4851 91.6152C86.3926 91.6247 85.3401 91.2047 84.5542 90.4458L62.1042 67.9999C57.3293 71.705 51.6369 74.0422 45.6361 74.7614C39.6352 75.4806 33.5518 74.5547 28.0366 72.0829C22.5214 69.611 17.782 65.6862 14.3255 60.7284C10.8691 55.7705 8.82556 49.9662 8.41369 43.9365C8.00181 37.9067 9.23706 31.8785 11.9873 26.4967C14.7375 21.1149 18.8991 16.5821 24.027 13.3832C29.1548 10.1844 35.0559 8.43991 41.0988 8.33643C47.1417 8.23295 53.099 9.77853 58.3334 12.7999Z" fill="white" fill-opacity="0.2"/>
</svg>
