<svg width="100" height="100" viewBox="0 0 100 100" fill="none" xmlns="http://www.w3.org/2000/svg">
<g clip-path="url(#clip0_129_150)">
<path d="M28.3051 4.95159C34.221 2.10266 40.6401 0.446842 47.1959 0.0786668C53.7518 -0.289508 60.3159 0.637174 66.5136 2.8058C72.7113 4.97443 78.4211 8.34254 83.3171 12.7178C88.2131 17.0931 92.1994 22.3899 95.0484 28.3057C97.8973 34.2215 99.5532 40.6406 99.9213 47.1963C100.29 53.7521 99.3628 60.3162 97.1942 66.5138C95.0255 72.7114 91.6574 78.4212 87.2821 83.3172C82.9067 88.2131 77.6099 92.1994 71.694 95.0483C59.7466 100.802 46.0029 101.574 33.4863 97.1944C20.9697 92.8148 10.7055 83.6425 4.95176 71.6952C-0.801963 59.7479 -1.57394 46.0043 2.80566 33.4878C7.18527 20.9713 16.3577 10.7053 28.3051 4.95159Z" fill="white" fill-opacity="0.6"/>
<path fill-rule="evenodd" clip-rule="evenodd" d="M22.0541 59.9087C23.4141 66.3113 26.9321 72.0525 32.0193 76.1713C37.1065 80.2901 43.4541 82.5365 49.9996 82.5344C56.5447 82.5346 62.8914 80.2876 67.9782 76.1691C73.065 72.0506 76.5835 66.3105 77.9451 59.9087H22.0541Z" fill="#171717" fill-opacity="0.36"/>
<path d="M24.2343 28.1978L40.0899 38.1074L24.2343 48.0171M75.765 28.1978L59.9094 38.1074L75.765 48.0171" stroke="#2F2F2F" stroke-linecap="round" stroke-linejoin="round"/>
</g>
<defs>
<clipPath id="clip0_129_150">
<rect width="100" height="100" fill="white"/>
</clipPath>
</defs>
</svg>
