<svg width="100" height="100" viewBox="0 0 100 100" fill="none" xmlns="http://www.w3.org/2000/svg">
<path d="M50 12.5C40.0544 12.5 30.5161 16.4509 23.4835 23.4835C16.4509 30.5161 12.5 40.0544 12.5 50C12.5 59.9456 16.4509 69.4839 23.4835 76.5165C30.5161 83.5491 40.0544 87.5 50 87.5C53.4583 87.5 56.25 84.7083 56.25 81.25C56.25 79.625 55.625 78.1667 54.625 77.0417C53.6667 75.9583 53.0417 74.5 53.0417 72.9167C53.0417 69.4583 55.8333 66.6667 59.2917 66.6667H66.6667C78.1667 66.6667 87.5 57.3333 87.5 45.8333C87.5 27.4167 70.7083 12.5 50 12.5ZM27.0833 50C23.625 50 20.8333 47.2083 20.8333 43.75C20.8333 40.2917 23.625 37.5 27.0833 37.5C30.5417 37.5 33.3333 40.2917 33.3333 43.75C33.3333 47.2083 30.5417 50 27.0833 50ZM39.5833 33.3333C36.125 33.3333 33.3333 30.5417 33.3333 27.0833C33.3333 23.625 36.125 20.8333 39.5833 20.8333C43.0417 20.8333 45.8333 23.625 45.8333 27.0833C45.8333 30.5417 43.0417 33.3333 39.5833 33.3333ZM60.4167 33.3333C56.9583 33.3333 54.1667 30.5417 54.1667 27.0833C54.1667 23.625 56.9583 20.8333 60.4167 20.8333C63.875 20.8333 66.6667 23.625 66.6667 27.0833C66.6667 30.5417 63.875 33.3333 60.4167 33.3333ZM72.9167 50C69.4583 50 66.6667 47.2083 66.6667 43.75C66.6667 40.2917 69.4583 37.5 72.9167 37.5C76.375 37.5 79.1667 40.2917 79.1667 43.75C79.1667 47.2083 76.375 50 72.9167 50Z" fill="white" fill-opacity="0.2"/>
</svg>
