<svg viewBox="0 0 100 100" fill="none" xmlns="http://www.w3.org/2000/svg">
<path fill-rule="evenodd" clip-rule="evenodd" d="M91.6667 80.0249V49.9999C91.6667 26.9874 73.0125 8.33325 50 8.33325C26.9875 8.33325 8.33337 26.9874 8.33337 49.9999V80.0249C8.33362 81.2516 8.64747 82.4579 9.24511 83.5292C9.84275 84.6005 10.7043 85.5012 11.7481 86.1458C12.7918 86.7904 13.9829 87.1575 15.2084 87.2122C16.4339 87.2669 17.6531 87.0073 18.75 86.4583C20.6489 85.5084 22.7652 85.0774 24.8843 85.2091C27.0034 85.3409 29.0501 86.0305 30.8167 87.2083C32.7956 88.5286 35.1212 89.2332 37.5 89.2332C39.8789 89.2332 42.2045 88.5286 44.1834 87.2083L45.6542 86.2333C46.9411 85.3751 48.4533 84.9172 50 84.9172C51.5468 84.9172 53.059 85.3751 54.3459 86.2333L55.8167 87.2124C57.7956 88.5327 60.1212 89.2374 62.5 89.2374C64.8789 89.2374 67.2045 88.5327 69.1834 87.2124C70.9505 86.0339 72.9979 85.3438 75.1178 85.2121C77.2377 85.0804 79.3548 85.5117 81.2542 86.4624C82.3513 87.0107 83.5704 87.2694 84.7957 87.2141C86.0209 87.1587 87.2117 86.7911 88.2549 86.1461C89.2981 85.5012 90.1592 84.6002 90.7563 83.5289C91.3534 82.4576 91.6668 81.2514 91.6667 80.0249ZM66.6667 43.7499C66.6667 47.1999 64.8 49.9999 62.5 49.9999C60.2 49.9999 58.3334 47.1999 58.3334 43.7499C58.3334 40.2999 60.2 37.4999 62.5 37.4999C64.8 37.4999 66.6667 40.2999 66.6667 43.7499ZM37.5 49.9999C39.8 49.9999 41.6667 47.1999 41.6667 43.7499C41.6667 40.2999 39.8 37.4999 37.5 37.4999C35.2 37.4999 33.3334 40.2999 33.3334 43.7499C33.3334 47.1999 35.2 49.9999 37.5 49.9999Z" fill="white" fill-opacity="0.2"/>
</svg>
