<svg viewBox="0 0 100 100" fill="none" xmlns="http://www.w3.org/2000/svg">
<path d="M61.1917 54.9666C55.2167 56.8666 49.425 51.5916 50.7625 45.4666C50.8181 45.2083 50.8875 44.9541 50.9709 44.7041C54.2667 34.3208 56.3875 32.2458 57.2792 31.3499C57.3948 31.2255 57.4807 31.0765 57.5305 30.9142C57.5803 30.7518 57.5927 30.5803 57.5667 30.4124C57.5468 30.2611 57.4925 30.1163 57.408 29.9892C57.3235 29.8621 57.211 29.756 57.0792 29.6791C52.9729 27.8152 48.5179 26.8438 44.0084 26.8291C35.3689 26.8302 27.0835 30.2624 20.9741 36.3711C14.8647 42.4797 11.4314 50.7646 11.4292 59.4041C11.3694 60.5561 11.3694 61.7104 11.4292 62.8624C11.4382 63.0105 11.4177 63.1589 11.3691 63.2991C11.3205 63.4392 11.2446 63.5684 11.1459 63.6791C7.40303 68.4504 4.38443 73.7477 2.18754 79.3999C1.25479 81.2379 0.859315 83.3017 1.04652 85.3543C1.23372 87.407 1.99602 89.3652 3.24588 91.0041C4.77504 92.4624 6.82921 93.2416 8.94588 93.1624C14.8272 92.4874 20.4368 90.3138 25.2375 86.8499C25.3958 86.7518 25.5784 86.6997 25.7646 86.6997C25.9509 86.6997 26.1334 86.7518 26.2917 86.8499C47.3375 100.487 75.25 86.2249 76.5417 61.1833C76.5695 60.5916 76.5834 59.9985 76.5834 59.4041C76.5686 56.2332 76.1013 53.0806 75.1959 50.0416C75.144 49.8837 75.0536 49.7411 74.9329 49.6269C74.8121 49.5127 74.6648 49.4304 74.5042 49.3874C74.3674 49.3108 74.2131 49.2705 74.0563 49.2705C73.8994 49.2705 73.7452 49.3108 73.6084 49.3874C69.7616 51.8388 65.579 53.7182 61.1917 54.9666ZM40.1375 57.1666C40.6727 56.657 41.3745 56.3587 42.1128 56.327C42.8511 56.2953 43.5759 56.5324 44.1527 56.9943C44.7296 57.4561 45.1194 58.1115 45.2499 58.8389C45.3804 59.5663 45.2428 60.3163 44.8625 60.9499C28.9 76.0583 15.9875 83.6749 10.8209 84.8958C10.6513 84.9471 10.4709 84.9515 10.299 84.9083C10.1271 84.8652 9.97016 84.7763 9.84485 84.651C9.71954 84.5257 9.63059 84.3687 9.58748 84.1968C9.54436 84.0249 9.54871 83.8446 9.60004 83.6749C10.0882 81.8051 10.7988 80.0005 11.7167 78.2999C12.2459 77.2791 12.8542 76.1416 13.5917 74.8791C13.6928 74.7402 13.8279 74.6296 13.984 74.5581C14.1402 74.4866 14.3122 74.4565 14.4834 74.4708C14.6615 74.4705 14.8362 74.5199 14.9878 74.6133C15.1394 74.7068 15.2619 74.8407 15.3417 74.9999C15.401 75.1209 15.4863 75.2273 15.5915 75.3116C15.6966 75.3958 15.819 75.4559 15.95 75.4874C16.2223 75.5708 16.4945 75.5708 16.7667 75.4874C25.1453 70.1688 32.9711 64.0318 40.1375 57.1666Z" fill="white" fill-opacity="0.2"/>
<path d="M72.0208 39.9833C72.0043 38.3669 71.3622 36.8197 70.2292 35.6667C69.0592 34.5702 67.5159 33.96 65.9125 33.96C64.3091 33.96 62.7658 34.5702 61.5958 35.6667C59.4792 39.0583 57.8458 42.7292 56.75 46.5792C56.6421 46.9405 56.6344 47.3244 56.7276 47.6898C56.8208 48.0553 57.0114 48.3886 57.2792 48.6542C57.5431 48.9119 57.8719 49.0933 58.2306 49.1792C58.5894 49.265 58.9647 49.252 59.3167 49.1417C63.1671 48.0721 66.8437 46.4541 70.2333 44.3375C71.3708 43.1708 72.0083 41.6125 72.0208 39.9833ZM94.9042 7.24165L88.5542 9.97082C87.0625 10.6458 85.6875 11.5542 84.4833 12.6583L79.7583 17.4625C77.0921 16.7695 74.295 16.7533 71.621 17.4154C68.9469 18.0776 66.4806 19.3971 64.4458 21.2542L63.0208 22.675C62.6466 23.0633 62.4374 23.5815 62.4374 24.1208C62.4374 24.6601 62.6466 25.1784 63.0208 25.5667L80.2875 42.8333C80.675 43.2208 81.2042 43.4417 81.7542 43.4417C82.0202 43.4401 82.2833 43.3855 82.528 43.2811C82.7727 43.1766 82.994 43.0244 83.1792 42.8333L84.6042 41.4083C86.4735 39.3898 87.8013 36.9307 88.4635 34.2604C89.1258 31.5901 89.1011 28.7956 88.3917 26.1375L93.275 21.25C94.3861 20.0557 95.2826 18.6785 95.925 17.1792L98.65 10.825C98.9379 10.303 99.0539 9.7034 98.9813 9.11166C98.9087 8.51991 98.6514 7.96614 98.2458 7.52915C97.792 7.13173 97.2231 6.88953 96.6221 6.83782C96.0211 6.78611 95.4192 6.92759 94.9042 7.24165Z" fill="white" fill-opacity="0.2"/>
</svg>
