<svg viewBox="0 0 101 101" fill="none" xmlns="http://www.w3.org/2000/svg">
<path fill-rule="evenodd" clip-rule="evenodd" d="M8.34865 4.50494L4.18201 4.52031L4.28531 32.5201C4.32872 44.2867 9.00232 55.1904 16.7862 63.2325C15.8936 56.6534 16.3093 49.9627 18.0094 43.5446L26.754 10.4287L70.9139 22.0867L70.8482 4.27435L8.34865 4.50494ZM31.203 18.0665L24.0528 45.1389C21.5904 54.4641 22.2332 64.3378 25.8839 73.265C29.5346 82.1922 35.9945 89.687 44.2855 94.6146L45.3086 95.2234L46.5002 95.1981C56.1423 95.0038 65.4586 91.6735 73.0389 85.7115C80.6193 79.7495 86.051 71.4802 88.5119 62.1554L95.6621 35.0872L31.203 18.0665ZM40.7106 51.7275C40.9446 50.9522 41.4704 50.298 42.1773 49.9028C42.8842 49.5075 43.717 49.4022 44.5 49.6089C45.2831 49.8156 45.9553 50.3183 46.375 51.0109C46.7947 51.7036 46.9291 52.5321 46.7498 53.3219L52.7974 54.9163C53.4317 52.5121 53.085 49.9543 51.8334 47.8058C50.5819 45.6572 48.5281 44.0939 46.1239 43.4596C43.7197 42.8253 41.1619 43.1721 39.0134 44.4236C36.8648 45.6751 35.3015 47.7289 34.6672 50.1331L40.7106 51.7275ZM64.5863 58.6437C64.7977 57.8417 65.319 57.1566 66.0356 56.739C66.7522 56.3214 67.6053 56.2056 68.4072 56.417C69.2092 56.6285 69.8943 57.1498 70.3119 57.8664C70.7295 58.583 70.8453 59.4361 70.6339 60.238L76.6731 61.8366C77.308 59.4324 76.9617 56.8744 75.7106 54.7255C74.4594 52.5765 72.4059 51.0126 70.0016 50.3778C67.5974 49.7429 65.0395 50.0892 62.8905 51.3403C60.7416 52.5915 59.1777 54.645 58.5428 57.0493L64.5863 58.6437Z" fill="white" fill-opacity="0.2"/>
</svg>
