<svg viewBox="0 0 100 100" fill="none" xmlns="http://www.w3.org/2000/svg">
<path d="M41.8838 75.2031L34.8213 82.4824L34.4834 82.8311L34.8213 83.1787L41.8936 90.4629L35.1846 97.373L22.5811 84.3916L22.2227 84.0225L21.8643 84.3916L7.40527 99.2812L0.696289 92.3721L15.1758 77.4561L15.5137 77.1074L15.1758 76.7598L2.55078 63.7617L9.25977 56.8535L16.3076 64.1055L16.666 64.4756L17.0244 64.1055L24.0664 56.8477L41.8838 75.2031ZM21.2256 0.515625L82.9707 64.1113L83.3291 64.4805L83.6875 64.1113L90.7402 56.8525L97.4541 63.7627L84.8291 76.7646L84.4912 77.1133L84.8291 77.4609L99.3027 92.3721L92.5938 99.2812L78.1357 84.3916L77.7773 84.0225L77.418 84.3916L64.8184 97.373L58.1045 90.4629L65.1729 83.1787L65.5107 82.8311L65.1729 82.4824L3.37402 18.8428L3.36523 0.5L21.2256 0.515625ZM96.6406 0.515625L96.6494 18.8164L75.9229 40.1572L58.0996 21.8076L78.7949 0.5L96.6406 0.515625Z" fill="white" fill-opacity="0.2" stroke="black"/>
</svg>
