<svg width="25" height="25" viewBox="0 0 25 25" fill="none" xmlns="http://www.w3.org/2000/svg">
<path d="M8.5567 6.37219C8.35551 6.37219 8.16256 6.45212 8.02029 6.59438C7.87803 6.73664 7.79811 6.92959 7.79811 7.13079C7.79811 7.33198 7.87803 7.52493 8.02029 7.66719C8.16256 7.80946 8.35551 7.88938 8.5567 7.88938H15.3132L6.59447 16.6081C6.51994 16.6776 6.46016 16.7613 6.4187 16.8544C6.37724 16.9475 6.35494 17.0479 6.35315 17.1498C6.35135 17.2516 6.37009 17.3528 6.40824 17.4472C6.44639 17.5417 6.50318 17.6275 6.57521 17.6995C6.64725 17.7716 6.73306 17.8284 6.82751 17.8665C6.92197 17.9047 7.02315 17.9234 7.125 17.9216C7.22686 17.9198 7.32731 17.8975 7.42036 17.8561C7.51342 17.8146 7.59717 17.7548 7.66662 17.6803L16.3854 8.96152V15.7181C16.3854 15.9193 16.4653 16.1122 16.6076 16.2545C16.7498 16.3967 16.9428 16.4767 17.144 16.4767C17.3452 16.4767 17.5381 16.3967 17.6804 16.2545C17.8226 16.1122 17.9026 15.9193 17.9026 15.7181V7.13079C17.9008 7.03009 17.8802 6.93061 17.8419 6.83746C17.7868 6.70814 17.6974 6.59639 17.5832 6.51436C17.4691 6.43232 17.3347 6.38315 17.1945 6.37219H8.5567Z" fill="#73B0FF"/>
</svg>
