<svg width="30" height="30" viewBox="0 0 30 30" fill="none" xmlns="http://www.w3.org/2000/svg">
<path fill-rule="evenodd" clip-rule="evenodd" d="M30 15C30 6.7155 23.2845 0 15 0C6.7155 0 0 6.7155 0 15C0 23.2845 6.7155 30 15 30C23.2845 30 30 23.2845 30 15ZM9.705 14.295C9.49432 14.0841 9.37599 13.7981 9.37599 13.5C9.37599 13.2019 9.49432 12.9159 9.705 12.705L14.205 8.205C14.4159 7.99432 14.7019 7.87599 15 7.87599C15.2981 7.87599 15.5841 7.99432 15.795 8.205L20.295 12.705C20.4055 12.808 20.4942 12.9322 20.5557 13.0702C20.6172 13.2082 20.6502 13.3572 20.6529 13.5082C20.6556 13.6593 20.6278 13.8093 20.5712 13.9494C20.5146 14.0895 20.4304 14.2167 20.3236 14.3236C20.2167 14.4304 20.0895 14.5146 19.9494 14.5712C19.8093 14.6278 19.6593 14.6556 19.5082 14.6529C19.3572 14.6502 19.2082 14.6172 19.0702 14.5557C18.9322 14.4942 18.808 14.4055 18.705 14.295L16.125 11.715V21C16.125 21.2984 16.0065 21.5845 15.7955 21.7955C15.5845 22.0065 15.2984 22.125 15 22.125C14.7016 22.125 14.4155 22.0065 14.2045 21.7955C13.9935 21.5845 13.875 21.2984 13.875 21V11.715L11.295 14.295C11.0841 14.5057 10.7981 14.624 10.5 14.624C10.2019 14.624 9.91594 14.5057 9.705 14.295Z" fill="currentColor" fill-opacity="1"/>
</svg>
