<svg viewBox="0 0 26 26" fill="none" xmlns="http://www.w3.org/2000/svg">
<path d="M20.9008 10.4504C20.9008 4.68961 16.2112 0 10.4504 0C4.68961 0 0 4.68961 0 10.4504C0 16.2112 4.68961 20.9008 10.4504 20.9008C12.867 20.9008 15.0747 20.0778 16.8513 18.6931L23.5134 25.3553L25.3553 23.5134L18.6931 16.8513C20.119 15.0218 20.8956 12.7699 20.9008 10.4504ZM2.6126 10.4504C2.6126 6.12654 6.12654 2.6126 10.4504 2.6126C14.7742 2.6126 18.2882 6.12654 18.2882 10.4504C18.2882 14.7742 14.7742 18.2882 10.4504 18.2882C6.12654 18.2882 2.6126 14.7742 2.6126 10.4504Z" fill="#3E6497"/>
</svg>
